<svg xmlns="http://www.w3.org/2000/svg" viewBox="0 0 341.7 70.81"><defs><style>.cls-1{fill:#2c2e33;}.cls-2{fill:#fdfefe;}</style></defs><g id="Layer_2" data-name="Layer 2"><g id="Layer_1-2" data-name="Layer 1"><path class="cls-1" d="M135.75,1.76A4.23,4.23,0,0,0,132.5.41a4.39,4.39,0,0,0-3.3,1.35,4.62,4.62,0,0,0-1.3,3.35V52.45L89.3,2.2A3.65,3.65,0,0,0,87.45.86,6.72,6.72,0,0,0,85.1.41,5.1,5.1,0,0,0,81.5,1.8,4.84,4.84,0,0,0,80,5.51V65.8a4.62,4.62,0,0,0,1.25,3.25A4.34,4.34,0,0,0,84.6,70.4a4.39,4.39,0,0,0,3.3-1.35,4.5,4.5,0,0,0,1.3-3.25V18.59L128,68.9A4,4,0,0,0,129.75,70a6.72,6.72,0,0,0,2.15.39,5,5,0,0,0,5.1-5.1V5.11A4.75,4.75,0,0,0,135.75,1.76Z"/><path class="cls-1" d="M207.5,63.91,182.4,3.41a5.11,5.11,0,0,0-1.9-2.5,4.83,4.83,0,0,0-2.8-.9,4.64,4.64,0,0,0-2.95.8,5.61,5.61,0,0,0-2.05,2.6l-25.4,61.4a5.12,5.12,0,0,0-.3,1.6,5,5,0,0,0,1.2,3.15,4.17,4.17,0,0,0,3.3,1.25,4.39,4.39,0,0,0,2.7-.9,5.38,5.38,0,0,0,1.8-2.5l5.92-14.2H192.6l6,14.2a5.66,5.66,0,0,0,1.85,2.45,4.46,4.46,0,0,0,2.75,1,4.66,4.66,0,0,0,3.25-1.35,4.61,4.61,0,0,0,1.45-3.55A5.29,5.29,0,0,0,207.5,63.91Zm-41.58-20.3,11.23-26.95,11.39,27Z"/><path class="cls-1" d="M263.1,11a20.93,20.93,0,0,0-7.2-7.75A18,18,0,0,0,246.1.41H223a5,5,0,0,0-3.6,1.45,4.85,4.85,0,0,0-1.5,3.65V65.3A5.13,5.13,0,0,0,219.25,69a4.49,4.49,0,0,0,3.45,1.45A4.61,4.61,0,0,0,226.25,69a5.13,5.13,0,0,0,1.35-3.65V43.9h18.5A17.5,17.5,0,0,0,255.9,41a21.53,21.53,0,0,0,7.2-7.9,22.65,22.65,0,0,0,2.7-11A22.38,22.38,0,0,0,263.1,11Zm-8.75,17.1a12.74,12.74,0,0,1-3.5,4.5,7.49,7.49,0,0,1-4.75,1.69H227.6V10h18.5a7.56,7.56,0,0,1,4.75,1.65,12.26,12.26,0,0,1,3.5,4.35,13.17,13.17,0,0,1,1.35,6A13.9,13.9,0,0,1,254.35,28.11Z"/><path class="cls-1" d="M340.15,1.81A5,5,0,0,0,336.6.36a4.8,4.8,0,0,0-4.1,2.3L308.71,38,285.5,2.66a4.53,4.53,0,0,0-2-1.7,6,6,0,0,0-2.5-.6,5.07,5.07,0,0,0-3.65,1.5,4.84,4.84,0,0,0-1.55,3.6v59.9A5.12,5.12,0,0,0,277.15,69a4.49,4.49,0,0,0,3.45,1.45A4.61,4.61,0,0,0,284.15,69a5.12,5.12,0,0,0,1.35-3.64V19.59l18.8,29.27a6.18,6.18,0,0,0,1.85,1.54,5,5,0,0,0,4.55,0,6.49,6.49,0,0,0,1.8-1.54l18.8-28.63V65.36A4.91,4.91,0,0,0,332.75,69a5.2,5.2,0,0,0,3.85,1.45A4.9,4.9,0,0,0,340.3,69a5,5,0,0,0,1.4-3.64V5.46A4.78,4.78,0,0,0,340.15,1.81Z"/><rect class="cls-1" y="0.4" width="70" height="70" rx="5"/><rect class="cls-2" x="47.47" y="14.62" width="8.31" height="41.57" rx="1"/><rect class="cls-2" x="36.33" y="35.4" width="8.31" height="20.79" rx="1"/><rect class="cls-2" x="25.27" y="14.62" width="8.31" height="20.78" rx="1"/><rect class="cls-2" x="14.22" y="14.62" width="8.31" height="41.57" rx="1"/></g></g></svg>