<svg xmlns="http://www.w3.org/2000/svg" viewBox="0 0 326.23 70"><defs><style>.cls-1{fill:#2c2e33;}.cls-2{fill:#fdfefe;}</style></defs><g id="Layer_2" data-name="Layer 2"><g id="Testing-DARK"><path class="cls-1" d="M123.73.1h7.6a.88.88,0,0,1,1,1V69a.88.88,0,0,1-1,1H124a1.46,1.46,0,0,1-1.2-.7l-31.3-51c-.06-.2-.16-.28-.3-.25s-.2.15-.2.35L91.13,69a.88.88,0,0,1-1,1h-7.6a.89.89,0,0,1-1-1V1.1a.89.89,0,0,1,1-1h7.4a1.43,1.43,0,0,1,1.2.7l31.2,51c.07.2.17.28.3.25s.2-.15.2-.35l-.1-50.63A.89.89,0,0,1,123.73.1Z"/><path class="cls-1" d="M190.13,69.2l-3.6-11.68a.39.39,0,0,0-.4-.3H158a.39.39,0,0,0-.4.3L154,69.2a1.17,1.17,0,0,1-1.2.8h-8.1c-.73,0-1-.37-.8-1.1l21.9-68A1.17,1.17,0,0,1,167,.1h10a1.17,1.17,0,0,1,1.2.8l22.1,68,.1.4c0,.47-.3.7-.9.7h-8.2A1.17,1.17,0,0,1,190.13,69.2ZM160.18,49.48a.49.49,0,0,0,.35.15h23a.47.47,0,0,0,.35-.15.27.27,0,0,0,.05-.35l-11.6-37.05a.31.31,0,0,0-.3-.2.33.33,0,0,0-.3.2l-11.6,37.05A.29.29,0,0,0,160.18,49.48Z"/><path class="cls-1" d="M250,2.55a17.8,17.8,0,0,1,7.2,7.14,21.43,21.43,0,0,1,2.55,10.58,20.61,20.61,0,0,1-2.6,10.49,18,18,0,0,1-7.35,7,23.26,23.26,0,0,1-10.95,2.49h-17.6a.35.35,0,0,0-.4.4V69a.88.88,0,0,1-1,1h-7.6a.88.88,0,0,1-1-1V1a.88.88,0,0,1,1-1h27A22,22,0,0,1,250,2.55Zm-3.2,26.61a11.66,11.66,0,0,0,3.35-8.69,12,12,0,0,0-3.35-8.84,12,12,0,0,0-8.85-3.34h-16.7a.35.35,0,0,0-.4.4V32.05a.35.35,0,0,0,.4.4h16.7A12,12,0,0,0,246.78,29.16Z"/><path class="cls-1" d="M317.63.1h7.6a.88.88,0,0,1,1,1V69a.88.88,0,0,1-1,1h-7.6a.88.88,0,0,1-1-1V17.87a.39.39,0,0,0-.2-.39c-.14-.07-.23,0-.3.19l-14.3,21.77a1.35,1.35,0,0,1-1.2.6h-3.8a1.5,1.5,0,0,1-1.2-.6l-14.4-21.57c-.07-.2-.17-.26-.3-.2a.4.4,0,0,0-.2.4V69a.88.88,0,0,1-1,1h-7.6a.88.88,0,0,1-1-1V1.1a.88.88,0,0,1,1-1h7.6a1.35,1.35,0,0,1,1.2.6l17.5,26.16a.5.5,0,0,0,.6,0L316.43.7A1.5,1.5,0,0,1,317.63.1Z"/><rect class="cls-1" width="70" height="70" rx="2"/><rect class="cls-2" x="47.47" y="14.21" width="8.31" height="41.57" rx="1"/><rect class="cls-2" x="36.33" y="35" width="8.31" height="20.79" rx="1"/><rect class="cls-2" x="25.27" y="14.21" width="8.31" height="20.78" rx="1"/><rect class="cls-2" x="14.22" y="14.21" width="8.31" height="41.57" rx="1"/></g></g></svg>